<svg width="27" height="26" viewBox="0 0 27 26" fill="none" xmlns="http://www.w3.org/2000/svg">
<path d="M22.9833 14.2528C19.899 15.4759 16.6028 16.1027 13.2759 16.0987C9.84271 16.0987 6.56699 15.4428 3.56848 14.2528M13.2759 12.9252H13.2867M17.5903 6.57832V4.46268C17.5903 3.90158 17.363 3.36346 16.9585 2.9667C16.5539 2.56994 16.0052 2.34705 15.4331 2.34705H11.1187C10.5466 2.34705 9.99788 2.56994 9.59332 2.9667C9.18877 3.36346 8.96149 3.90158 8.96149 4.46268V6.57832H17.5903ZM5.72569 21.3878H20.8261C21.3982 21.3878 21.9469 21.1649 22.3515 20.7681C22.756 20.3714 22.9833 19.8332 22.9833 19.2721V8.69395C22.9833 8.13285 22.756 7.59473 22.3515 7.19797C21.9469 6.80121 21.3982 6.57832 20.8261 6.57832H5.72569C5.15356 6.57832 4.60487 6.80121 4.20031 7.19797C3.79576 7.59473 3.56848 8.13285 3.56848 8.69395V19.2721C3.56848 19.8332 3.79576 20.3714 4.20031 20.7681C4.60487 21.1649 5.15356 21.3878 5.72569 21.3878Z" stroke="#DF636B" stroke-width="1.5" stroke-linecap="round" stroke-linejoin="round"/>
</svg>
