<svg width="27" height="26" viewBox="0 0 27 26" fill="none" xmlns="http://www.w3.org/2000/svg">
<path d="M14.9807 16.7824L10.5052 21.1716L9.73703 21.9249V16.7824H7.11522C6.41987 16.7824 5.753 16.5115 5.26132 16.0292C4.76963 15.547 4.49341 14.893 4.49341 14.2111V6.49719C4.49341 5.81525 4.76963 5.16123 5.26132 4.67902C5.753 4.19681 6.41987 3.9259 7.11522 3.9259H20.2243C20.9196 3.9259 21.5865 4.19681 22.0782 4.67902C22.5699 5.16123 22.8461 5.81525 22.8461 6.49719V14.2111C22.8461 14.893 22.5699 15.547 22.0782 16.0292C21.5865 16.5115 20.9196 16.7824 20.2243 16.7824H14.9807Z" stroke="#3F3F46" stroke-width="1.5" stroke-linecap="round" stroke-linejoin="round"/>
<path d="M8.80151 8.73535H18.539" stroke="#3F3F46" stroke-width="1.5" stroke-linecap="round"/>
<path d="M8.80151 11.9725H18.539" stroke="#3F3F46" stroke-width="1.5" stroke-linecap="round"/>
</svg>
