<svg width="25" height="25" viewBox="0 0 25 25" fill="none" xmlns="http://www.w3.org/2000/svg">
<path d="M21.7205 21.9259L15.7205 15.9259M17.7205 10.9259C17.7205 11.8452 17.5395 12.7554 17.1877 13.6047C16.8359 14.454 16.3203 15.2256 15.6703 15.8757C15.0203 16.5257 14.2486 17.0413 13.3993 17.3931C12.55 17.7448 11.6398 17.9259 10.7205 17.9259C9.80127 17.9259 8.89102 17.7448 8.04174 17.3931C7.19246 17.0413 6.42078 16.5257 5.77077 15.8757C5.12076 15.2256 4.60515 14.454 4.25336 13.6047C3.90158 12.7554 3.72052 11.8452 3.72052 10.9259C3.72052 9.06939 4.45802 7.28891 5.77077 5.97616C7.08353 4.6634 8.864 3.9259 10.7205 3.9259C12.577 3.9259 14.3575 4.6634 15.6703 5.97616C16.983 7.28891 17.7205 9.06939 17.7205 10.9259Z" stroke="#3F3F46" stroke-width="2" stroke-linecap="round" stroke-linejoin="round"/>
</svg>
