<svg width="27" height="26" viewBox="0 0 27 26" fill="none" xmlns="http://www.w3.org/2000/svg">
<path d="M5.6549 19.0648C7.91826 17.8102 10.4747 17.1527 13.0746 17.1565C15.7711 17.1565 18.3026 17.8494 20.4943 19.0648M16.3104 10.8096C16.3104 11.6513 15.9695 12.4585 15.3627 13.0536C14.7558 13.6487 13.9328 13.9831 13.0746 13.9831C12.2164 13.9831 11.3934 13.6487 10.7865 13.0536C10.1797 12.4585 9.8388 11.6513 9.8388 10.8096C9.8388 9.96798 10.1797 9.1608 10.7865 8.56566C11.3934 7.97052 12.2164 7.63618 13.0746 7.63618C13.9328 7.63618 14.7558 7.97052 15.3627 8.56566C15.9695 9.1608 16.3104 9.96798 16.3104 10.8096ZM22.782 12.9253C22.782 14.1755 22.5309 15.4135 22.0431 16.5686C21.5552 17.7236 20.8402 18.7731 19.9388 19.6572C19.0374 20.5412 17.9672 21.2425 16.7895 21.7209C15.6117 22.1994 14.3494 22.4456 13.0746 22.4456C11.7998 22.4456 10.5375 22.1994 9.35974 21.7209C8.18198 21.2425 7.11184 20.5412 6.21042 19.6572C5.30901 18.7731 4.59396 17.7236 4.10612 16.5686C3.61828 15.4135 3.36719 14.1755 3.36719 12.9253C3.36719 10.4003 4.38993 7.97877 6.21042 6.19336C8.03092 4.40794 10.5 3.40491 13.0746 3.40491C15.6492 3.40491 18.1183 4.40794 19.9388 6.19336C21.7593 7.97877 22.782 10.4003 22.782 12.9253Z" stroke="#2D3748" stroke-width="1.5" stroke-linecap="round" stroke-linejoin="round"/>
</svg>
